<svg xmlns="http://www.w3.org/2000/svg" xmlns:xlink="http://www.w3.org/1999/xlink" viewBox="0 0 1164.61 418.16"><defs><style>.cls-1{stroke:#fff;stroke-miterlimit:10;fill:url(#Degradado_sin_nombre_2);}.cls-2{fill:#fff;}.cls-3{font-size:201px;fill:#585858;font-family:Constantia-Bold, Constantia;font-weight:700;letter-spacing:-0.06em;}.cls-4{letter-spacing:0em;}.cls-5{letter-spacing:-0.01em;}.cls-6{letter-spacing:0em;}.cls-7{letter-spacing:-0.01em;}</style><linearGradient id="Degradado_sin_nombre_2" x1="0.5" y1="383.35" x2="260.83" y2="383.35" gradientTransform="matrix(1, 0, 0, -1, 0, 673.86)" gradientUnits="userSpaceOnUse"><stop offset="0.05" stop-color="#d6d8d2"/><stop offset="0.08" stop-color="#c8cac3"/><stop offset="0.24" stop-color="#8d8f87"/><stop offset="0.46" stop-color="#8d8f87"/><stop offset="0.49" stop-color="#8d8f87"/></linearGradient></defs><g id="Capa_2" data-name="Capa 2"><g id="Capa_1-2" data-name="Capa 1"><path class="cls-1" d="M260.83,290.5c0,70.24-58.27,127.16-130.16,127.16S.5,360.74.5,290.5,58.77,163.35,130.67,163.35,260.83,220.27,260.83,290.5Z"/><path class="cls-2" d="M203.1,233.33H185.53a7.6,7.6,0,0,0,0,15.19h10.13L133,311.16l-22.94-22.94a7.62,7.62,0,0,0-5.37-2.22h0a7.8,7.8,0,0,0-5.42,2.27L69.77,318.61a7.57,7.57,0,1,0,10.89,10.53l24.1-24.81,22.84,22.83a7.58,7.58,0,0,0,10.74,0L206,259.51v9.12a7.6,7.6,0,0,0,15.19,0V251.41A18.05,18.05,0,0,0,203.1,233.33Z"/><path class="cls-2" d="M213.64,289.24a7.58,7.58,0,0,0-7.6,7.59v42.54a13.55,13.55,0,0,1-13.52,13.52H68.76a13.55,13.55,0,0,1-13.52-13.52V248.52h39.7V262.4a7.6,7.6,0,0,0,15.19,0V222.65a20.56,20.56,0,0,1,41.12,0v10.68h-20.2a7.6,7.6,0,1,0,0,15.19h20.2V262.4a7.6,7.6,0,0,0,15.19,0V222.65a35.75,35.75,0,0,0-71.5,0v10.68H47.64a7.58,7.58,0,0,0-7.59,7.6v98.49a28.72,28.72,0,0,0,28.71,28.71H192.57a28.75,28.75,0,0,0,28.71-28.71V296.88A7.66,7.66,0,0,0,213.64,289.24Z"/><text/><text class="cls-3" transform="translate(272.4 365.42) scale(0.86 1.02)">F<tspan class="cls-4" x="101.1" y="0">A</tspan><tspan class="cls-5" x="236.26" y="0">S</tspan><tspan class="cls-6" x="340.9" y="0">TSHO</tspan><tspan class="cls-7" x="907.05" y="0">P</tspan></text></g></g></svg>