<svg xmlns="http://www.w3.org/2000/svg" xmlns:xlink="http://www.w3.org/1999/xlink" viewBox="0 0 1378.96 513"><defs><style>.cls-1{stroke:#fff;fill:url(#Degradado_sin_nombre_2);}.cls-1,.cls-3{stroke-miterlimit:10;}.cls-2{fill:#fff;}.cls-3,.cls-7{font-size:254px;font-family:Constantia-Bold, Constantia;font-weight:700;}.cls-3{fill:none;stroke:#585858;stroke-width:5px;letter-spacing:-0.06em;}.cls-4{letter-spacing:0em;}.cls-5{letter-spacing:-0.01em;}.cls-6{letter-spacing:-0.02em;}.cls-7{fill:#585858;letter-spacing:0em;}.cls-8{letter-spacing:-0.01em;}</style><linearGradient id="Degradado_sin_nombre_2" x1="0.5" y1="304.04" x2="512.5" y2="304.04" gradientTransform="matrix(1, 0, 0, -1, 0, 560.54)" gradientUnits="userSpaceOnUse"><stop offset="0.05" stop-color="#d6d8d2"/><stop offset="0.08" stop-color="#c8cac3"/><stop offset="0.24" stop-color="#8d8f87"/><stop offset="0.46" stop-color="#8d8f87"/><stop offset="0.49" stop-color="#8d8f87"/></linearGradient></defs><g id="Capa_2" data-name="Capa 2"><g id="Capa_1-2" data-name="Capa 1"><path class="cls-1" d="M512.5,256.5c0,141.4-114.6,256-256,256S.5,397.9.5,256.5,115.1.5,256.5.5,512.5,115.1,512.5,256.5Z"/><path class="cls-2" d="M399.6,169.3H364.9a15,15,0,0,0,0,30h20L261.2,323l-45.3-45.3a15,15,0,0,0-10.6-4.4h-.1a15.32,15.32,0,0,0-10.7,4.5l-58.2,59.9a15,15,0,1,0,21.5,20.8l47.6-49,45.1,45.1a15,15,0,0,0,21.2,0L405.3,221v18a15,15,0,0,0,30,0V205A35.66,35.66,0,0,0,399.6,169.3Z"/><path class="cls-2" d="M420.4,279.7a15,15,0,0,0-15,15v84a26.76,26.76,0,0,1-26.7,26.7H134.3a26.76,26.76,0,0,1-26.7-26.7V199.3H186v27.4a15,15,0,0,0,30,0V148.2a40.6,40.6,0,1,1,81.2,0v21.1H257.3a15,15,0,0,0,0,30h39.9v27.4a15,15,0,0,0,30,0V148.2a70.6,70.6,0,1,0-141.2,0v21.1H92.6a15,15,0,0,0-15,15V378.8a56.72,56.72,0,0,0,56.7,56.7H378.8a56.78,56.78,0,0,0,56.7-56.7v-84A15.15,15.15,0,0,0,420.4,279.7Z"/><text class="cls-3" transform="translate(512.04 352.29) scale(0.66 1)">F<tspan class="cls-4" x="127.76" y="0">A</tspan><tspan class="cls-5" x="298.56" y="0">S</tspan><tspan class="cls-6" x="430.79" y="0">T</tspan></text><text/><text class="cls-7" transform="translate(907.96 352.34) scale(0.66 1)">SHO<tspan class="cls-8" x="556.92" y="0">P</tspan></text></g></g></svg>