<svg id="Capa_1" data-name="Capa 1" xmlns="http://www.w3.org/2000/svg" xmlns:xlink="http://www.w3.org/1999/xlink" viewBox="0 0 465 465"><defs><style>.cls-1{fill:url(#Degradado_sin_nombre_163);}.cls-2{fill:#fff;}</style><linearGradient id="Degradado_sin_nombre_163" y1="232.5" x2="465" y2="232.5" gradientUnits="userSpaceOnUse"><stop offset="0" stop-color="#fff"/><stop offset="0.06" stop-color="#e9eae8"/><stop offset="0.15" stop-color="#cdceca"/><stop offset="0.25" stop-color="#b6b7b2"/><stop offset="0.37" stop-color="#a3a59f"/><stop offset="0.5" stop-color="#979891"/><stop offset="0.67" stop-color="#8f9189"/><stop offset="1" stop-color="#8d8f87"/></linearGradient></defs><circle class="cls-1" cx="232.5" cy="232.5" r="232.5"/><path class="cls-2" d="M399.08,125.88H364.35a15,15,0,0,0,0,30h20L260.69,279.59l-45.31-45.3a15,15,0,0,0-10.6-4.4h-.11A15,15,0,0,0,194,234.44l-58.18,59.91a15,15,0,1,0,21.52,20.9l47.57-49,45.15,45.15a15,15,0,0,0,21.21,0L404.91,177.79v18a15,15,0,1,0,30,0v-34A35.87,35.87,0,0,0,399.08,125.88Z" transform="translate(-19.75 -8.62)"/><path class="cls-2" d="M419.91,236.32a15,15,0,0,0-15,15v84A26.69,26.69,0,0,1,378.24,362H133.76a26.69,26.69,0,0,1-26.67-26.67V155.88h78.35v27.37a15,15,0,0,0,30,0V104.77a40.57,40.57,0,1,1,81.13,0v21.11H256.7a15,15,0,0,0,0,30h39.87v27.37a15,15,0,0,0,30,0V104.77a70.57,70.57,0,1,0-141.13,0v21.11H92.09a15,15,0,0,0-15,15V335.36A56.73,56.73,0,0,0,133.76,392H378.24a56.73,56.73,0,0,0,56.67-56.67v-84A15,15,0,0,0,419.91,236.32Z" transform="translate(-19.75 -8.62)"/></svg>